<svg width="16" height="16" viewBox="0 0 16 16" fill="none" xmlns="http://www.w3.org/2000/svg">
<path d="M8 16.0001C10.5597 16.0001 12.8366 14.7969 14.3009 12.9265H10.0874C9.54344 14.7397 9.23988 16.0001 8 16.0001Z" fill="#C42126"/>
<path d="M7.52781 15.9862C7.52547 15.9862 7.52334 15.986 7.521 15.986C7.52334 15.986 7.52568 15.9862 7.52781 15.9862Z" fill="#C42126"/>
<path d="M10.0874 3.07355H14.301C12.8366 1.20343 10.5596 0 8 0C9.23988 0 9.54344 1.26038 10.0874 3.07355Z" fill="#C42126"/>
<path d="M7.521 0.0142535C7.52334 0.0142535 7.52547 0.0140512 7.52781 0.0140512C7.52568 0.0140223 7.52334 0.0140223 7.521 0.0142535Z" fill="#C42126"/>
<path d="M14.3011 3.07349H10.0874C10.9378 5.90781 10.9378 10.0924 10.0874 12.9264H14.3007C15.3643 11.5682 16 9.85899 16 7.99999C16.0002 6.14112 15.3644 4.43179 14.3011 3.07349Z" fill="#FFC40C"/>
<path d="M7.99984 16C7.84068 16 7.68253 15.9953 7.52539 15.9862C7.68476 15.9951 7.84321 16 7.99984 16Z" fill="#C42126"/>
<path d="M7.52539 0.0140181C7.68249 0.00466144 7.84068 0 7.99984 0C7.84321 0 7.68476 0.00516812 7.52539 0.0140181Z" fill="#C42126"/>
<path d="M10.6757 12.9265H1.69922C3.07141 14.6794 5.15767 15.8463 7.52092 15.986C7.52244 15.986 7.52383 15.9863 7.52535 15.9863C7.68249 15.9954 7.84064 16.0001 7.9998 16.0001C9.23971 16.0001 10.1316 14.7397 10.6757 12.9265Z" fill="#D32030"/>
<path d="M1.69922 3.07355H10.6757C10.1316 1.26038 9.23971 0 7.99984 0C7.84067 0 7.68252 0.00466144 7.52538 0.0140181C7.52386 0.0140181 7.52248 0.0142546 7.52096 0.0142546C5.15767 0.153861 3.07141 1.32091 1.69922 3.07355Z" fill="#D32030"/>
<path d="M0 7.99999C0 9.85899 0.635747 11.5682 1.69933 12.9264H10.6758C11.5262 10.0923 11.5262 5.90764 10.6758 3.07349H1.69933C0.635747 4.43179 0 6.14112 0 7.99999Z" fill="#FFD034"/>
</svg>
