<svg width="17" height="16" viewBox="0 0 17 16" fill="none" xmlns="http://www.w3.org/2000/svg">
<g clip-path="url(#clip0_0_852)">
<path d="M8.5 16C13.1944 16 17 12.4183 17 8C17 3.58172 13.1944 0 8.5 0C3.80558 0 0 3.58172 0 8C0 12.4183 3.80558 16 8.5 16Z" fill="#F0F0F0"/>
<path d="M8.13037 8.00005H16.9999C16.9999 7.27799 16.8977 6.57849 16.7071 5.91309H8.13037V8.00005Z" fill="#D80027"/>
<path d="M8.13037 3.8261H15.7523C15.232 3.02698 14.5667 2.32064 13.791 1.73914H8.13037V3.8261Z" fill="#D80027"/>
<path d="M8.5001 16C10.5006 16 12.3392 15.3492 13.7912 14.2609H3.20898C4.66096 15.3492 6.49965 16 8.5001 16Z" fill="#D80027"/>
<path d="M1.24772 12.1739H15.7526C16.1703 11.5324 16.4943 10.8311 16.7073 10.0869H0.292969C0.506033 10.8311 0.829996 11.5324 1.24772 12.1739Z" fill="#D80027"/>
<path d="M3.93736 1.24931H4.71196L3.99145 1.74197L4.26667 2.53912L3.54619 2.04647L2.82572 2.53912L3.06345 1.85047C2.42907 2.34781 1.87305 2.9305 1.41485 3.57975H1.66304L1.20441 3.89334C1.13296 4.00553 1.06443 4.1195 0.99875 4.23516L1.21776 4.86956L0.80916 4.59016C0.707592 4.79269 0.614689 4.99978 0.531184 5.21119L0.772471 5.91019H1.66304L0.942537 6.40284L1.21776 7.2L0.497283 6.70734L0.065709 7.00247C0.0225117 7.32928 0 7.66216 0 8H8.5C8.5 3.58175 8.5 3.06087 8.5 0C6.82085 0 5.25556 0.458438 3.93736 1.24931ZM4.26667 7.2L3.54619 6.70734L2.82572 7.2L3.10094 6.40284L2.38043 5.91019H3.27101L3.54619 5.11303L3.82138 5.91019H4.71196L3.99145 6.40284L4.26667 7.2ZM3.99145 4.07241L4.26667 4.86956L3.54619 4.37691L2.82572 4.86956L3.10094 4.07241L2.38043 3.57975H3.27101L3.54619 2.78259L3.82138 3.57975H4.71196L3.99145 4.07241ZM7.31558 7.2L6.5951 6.70734L5.87463 7.2L6.14985 6.40284L5.42934 5.91019H6.31992L6.5951 5.11303L6.87029 5.91019H7.76087L7.04036 6.40284L7.31558 7.2ZM7.04036 4.07241L7.31558 4.86956L6.5951 4.37691L5.87463 4.86956L6.14985 4.07241L5.42934 3.57975H6.31992L6.5951 2.78259L6.87029 3.57975H7.76087L7.04036 4.07241ZM7.04036 1.74197L7.31558 2.53912L6.5951 2.04647L5.87463 2.53912L6.14985 1.74197L5.42934 1.24931H6.31992L6.5951 0.452156L6.87029 1.24931H7.76087L7.04036 1.74197Z" fill="#0052B4"/>
</g>
<defs>
<clipPath id="clip0_0_852">
<rect width="17" height="16" fill="white"/>
</clipPath>
</defs>
</svg>
