<svg width="13" height="15" viewBox="0 0 13 15" fill="none" xmlns="http://www.w3.org/2000/svg">
<path d="M1.37922 1.24881L0.985215 3.33234V6.66599C0.985215 7.08269 0.591206 10.833 0.591206 11.2497C0.591206 11.6665 1.37922 13.75 1.37922 14.1667C1.37922 14.5001 2.95526 14.3056 3.74328 14.1667C5.71332 12.7777 9.73221 9.91629 10.0474 9.58293C10.3626 9.24956 11.4921 8.61061 12.0175 8.33281L12.4115 7.08269L11.6235 6.24928L2.95526 0.832109L1.37922 1.24881Z" fill="#E0E6F2"/>
<path d="M11.655 4.99919L4.0427 0.382089C3.63079 0.130531 3.16327 -0.00124888 2.68762 0.000132825C2.21197 0.00151453 1.74514 0.136009 1.33454 0.389955C0.923945 0.643902 0.584211 1.00825 0.349848 1.446C0.115484 1.88375 -0.00515992 2.3793 0.000169196 2.88232V12.1499C0.000169196 12.9058 0.284108 13.6308 0.789522 14.1653C1.29494 14.6998 1.98043 15.0001 2.69519 15.0001C3.16835 14.9993 3.633 14.8671 4.0427 14.6168L11.655 9.99965C12.064 9.74929 12.4036 9.38957 12.6396 8.95659C12.8757 8.5236 13 8.03257 13 7.53276C13 7.03294 12.8757 6.54191 12.6396 6.10893C12.4036 5.67594 12.064 5.31622 11.655 5.06586V4.99919ZM10.8669 8.49118L3.25468 13.175C3.08407 13.2772 2.8913 13.331 2.69519 13.331C2.49908 13.331 2.30631 13.2772 2.1357 13.175C1.96556 13.0711 1.82429 12.9216 1.72607 12.7417C1.62786 12.5617 1.57617 12.3576 1.5762 12.1499V2.84899C1.57617 2.64121 1.62786 2.43709 1.72607 2.25715C1.82429 2.0772 1.96556 1.92778 2.1357 1.82389C2.30702 1.72318 2.49921 1.66878 2.69519 1.66554C2.89104 1.66979 3.083 1.72412 3.25468 1.82389L10.8669 6.47433C11.0371 6.57817 11.1785 6.72757 11.2767 6.90752C11.375 7.08747 11.4268 7.29161 11.4268 7.49942C11.4268 7.70723 11.375 7.91137 11.2767 8.09132C11.1785 8.27127 11.0371 8.42067 10.8669 8.52452V8.49118Z" fill="#E0E6F2"/>
</svg>
