<svg width="2280" height="828" viewBox="0 0 2280 828" fill="none" xmlns="http://www.w3.org/2000/svg">
<path d="M1318.53 53.6332C1283.92 105.417 1218.5 140.342 1143.5 140.342C1066.74 140.342 1000.02 103.762 966.091 49.9663V102.283H851.787V0H420V786H1860V0H1432.83V102.283H1318.53V53.6332Z" fill="#526281"/>
<path d="M975.616 79.6855C975.616 123.695 920.709 159.371 852.977 159.371C785.246 159.371 730.339 123.695 730.339 79.6855C730.339 35.6764 785.246 0 852.977 0C920.709 0 975.616 35.6764 975.616 79.6855Z" fill="#526281"/>
<path d="M1556.66 79.6855C1556.66 123.695 1501.75 159.371 1434.02 159.371C1366.29 159.371 1311.38 123.695 1311.38 79.6855C1311.38 35.6764 1366.29 0 1434.02 0C1501.75 0 1556.66 35.6764 1556.66 79.6855Z" fill="#526281"/>
<rect x="1860" width="420" height="828" fill="#526281"/>
<rect width="420" height="828" fill="#526281"/>
</svg>
