<svg width="1440" height="786" viewBox="0 0 1440 786" fill="none" xmlns="http://www.w3.org/2000/svg">
<path d="M898.528 53.6332C863.919 105.417 798.502 140.342 723.5 140.342C646.741 140.342 580.021 103.762 546.091 49.9663V102.283H431.787V0H0L0 786H1440V0H1012.83V102.283H898.528V53.6332Z" fill="#526281"/>
<path d="M555.616 79.6855C555.616 123.695 500.709 159.371 432.977 159.371C365.246 159.371 310.339 123.695 310.339 79.6855C310.339 35.6764 365.246 0 432.977 0C500.709 0 555.616 35.6764 555.616 79.6855Z" fill="#526281"/>
<path d="M1136.66 79.6855C1136.66 123.695 1081.75 159.371 1014.02 159.371C946.291 159.371 891.384 123.695 891.384 79.6855C891.384 35.6764 946.291 0 1014.02 0C1081.75 0 1136.66 35.6764 1136.66 79.6855Z" fill="#526281"/>
</svg>
